<svg xmlns="http://www.w3.org/2000/svg" viewBox="0 0 3617.3 1448.5" width="3617.3" height="1448.5" role="img" aria-label="P'in">
<defs><linearGradient id="g" x1="0" y1="0" x2="1" y2="1"><stop offset="0" stop-color="#54CE8E"/><stop offset="1" stop-color="#1F9156"/></linearGradient></defs>
<rect width="1448.5" height="1448.5" rx="324.0" ry="324.0" fill="url(#g)"/>
<g transform="translate(289.7,406.0) scale(0.5184)"><g transform="translate(-16.3,1157.5) scale(1,-1)"><path d="M353.33404541015625 248.9989013671875H274.00152587890625L303.002197265625 271.33270263671875V70.3348388671875L282.66845703125 97.66876220703125L398.00128173828125 71.66839599609375V0.0H86.33258056640625V71.66839599609375L181.9989013671875 99.6688232421875L159.66510009765625 70.3348388671875V631.6654663085938L185.33233642578125 600.9981079101562L86.33258056640625 627.3319702148438V699.0003662109375L306.00225830078125 704.0003662109375H397.00091552734375Q480.00128173828125 704.0003662109375 532.8347778320312 675.3335266113281Q585.6682739257812 646.6666870117188 611.1683044433594 597.66650390625Q636.6683349609375 548.6663208007812 636.6683349609375 486.666259765625Q636.6683349609375 419.666259765625 606.3349914550781 365.4994201660156Q576.0016479492188 311.33258056640625 513.3347778320312 280.1657409667969Q450.66790771484375 248.9989013671875 353.33404541015625 248.9989013671875ZM374.3336181640625 601.6644897460938H280.66839599609375L303.002197265625 623.998291015625V329.66766357421875L274.00152587890625 352.00146484375H353.6673583984375Q420.66607666015625 352.00146484375 455.6653137207031 388.0009765625Q490.66455078125 424.00048828125 490.66455078125 483.66619873046875Q490.66455078125 538.6654052734375 461.1651611328125 570.1649475097656Q431.665771484375 601.6644897460938 374.3336181640625 601.6644897460938Z" fill="#ffffff"/><path d="M494.9456429036069 829.0652849797812 579.9952274395921 1087.5277692960558 695.1748782448959 1039.818795823102 572.5534408650301 796.9190825182486Z" fill="#FFC53D"/><path d="M897.00244140625 81.66851806640625 886.6690063476562 94.3353271484375 963.6683959960938 71.66839599609375V0.0H690.3328247070312V71.66839599609375L767.3322143554688 94.3353271484375L756.998779296875 81.66851806640625V446.9984130859375L765.9988403320312 437.6650390625L690.3328247070312 458.99859619140625V530.6669921875L897.00244140625 537.6670532226562Z" fill="#ffffff"/><path d="M1018.3328247070312 0.0V71.66839599609375L1101.9990844726562 96.33538818359375L1084.998779296875 75.6683349609375V456.99871826171875L1101.9990844726562 434.33160400390625L1018.3328247070312 458.99859619140625V530.6669921875L1194.0016479492188 539.0004272460938L1211.668701171875 443.33392333984375L1193.6682739257812 449.6673583984375Q1242.3348999023438 498.667236328125 1296.3348693847656 522.3338928222656Q1350.3348388671875 546.0005493164062 1399.3348388671875 546.0005493164062Q1466.668212890625 546.0005493164062 1511.6683044433594 503.6671142578125Q1556.6683959960938 461.33367919921875 1556.0017700195312 374.6668701171875V75.6683349609375L1543.0015869140625 95.668701171875L1622.667724609375 71.66839599609375V0.0H1355.9990234375V71.66839599609375L1432.3317260742188 94.3353271484375L1415.9981079101562 73.0015869140625V344.99945068359375Q1415.9981079101562 393.9986572265625 1394.6651916503906 416.83160400390625Q1373.332275390625 439.66455078125 1338.3330078125 439.66455078125Q1311.000244140625 439.66455078125 1279.0009460449219 424.83154296875Q1247.0016479492188 409.99853515625 1215.6689453125 380.3326416015625L1225.00244140625 401.33294677734375V73.0015869140625L1212.0022583007812 93.66864013671875L1285.0015258789062 71.66839599609375V0.0Z" fill="#ffffff"/></g></g>
<g transform="translate(1941.0,110.5)"><g transform="translate(-16.3,1157.5) scale(1,-1)"><path d="M353.33404541015625 248.9989013671875H274.00152587890625L303.002197265625 271.33270263671875V70.3348388671875L282.66845703125 97.66876220703125L398.00128173828125 71.66839599609375V0.0H86.33258056640625V71.66839599609375L181.9989013671875 99.6688232421875L159.66510009765625 70.3348388671875V631.6654663085938L185.33233642578125 600.9981079101562L86.33258056640625 627.3319702148438V699.0003662109375L306.00225830078125 704.0003662109375H397.00091552734375Q480.00128173828125 704.0003662109375 532.8347778320312 675.3335266113281Q585.6682739257812 646.6666870117188 611.1683044433594 597.66650390625Q636.6683349609375 548.6663208007812 636.6683349609375 486.666259765625Q636.6683349609375 419.666259765625 606.3349914550781 365.4994201660156Q576.0016479492188 311.33258056640625 513.3347778320312 280.1657409667969Q450.66790771484375 248.9989013671875 353.33404541015625 248.9989013671875ZM374.3336181640625 601.6644897460938H280.66839599609375L303.002197265625 623.998291015625V329.66766357421875L274.00152587890625 352.00146484375H353.6673583984375Q420.66607666015625 352.00146484375 455.6653137207031 388.0009765625Q490.66455078125 424.00048828125 490.66455078125 483.66619873046875Q490.66455078125 538.6654052734375 461.1651611328125 570.1649475097656Q431.665771484375 601.6644897460938 374.3336181640625 601.6644897460938Z" fill="#34b06a"/><path d="M494.9456429036069 829.0652849797812 579.9952274395921 1087.5277692960558 695.1748782448959 1039.818795823102 572.5534408650301 796.9190825182486Z" fill="#FFC53D"/><path d="M897.00244140625 81.66851806640625 886.6690063476562 94.3353271484375 963.6683959960938 71.66839599609375V0.0H690.3328247070312V71.66839599609375L767.3322143554688 94.3353271484375L756.998779296875 81.66851806640625V446.9984130859375L765.9988403320312 437.6650390625L690.3328247070312 458.99859619140625V530.6669921875L897.00244140625 537.6670532226562Z" fill="#34b06a"/><path d="M1018.3328247070312 0.0V71.66839599609375L1101.9990844726562 96.33538818359375L1084.998779296875 75.6683349609375V456.99871826171875L1101.9990844726562 434.33160400390625L1018.3328247070312 458.99859619140625V530.6669921875L1194.0016479492188 539.0004272460938L1211.668701171875 443.33392333984375L1193.6682739257812 449.6673583984375Q1242.3348999023438 498.667236328125 1296.3348693847656 522.3338928222656Q1350.3348388671875 546.0005493164062 1399.3348388671875 546.0005493164062Q1466.668212890625 546.0005493164062 1511.6683044433594 503.6671142578125Q1556.6683959960938 461.33367919921875 1556.0017700195312 374.6668701171875V75.6683349609375L1543.0015869140625 95.668701171875L1622.667724609375 71.66839599609375V0.0H1355.9990234375V71.66839599609375L1432.3317260742188 94.3353271484375L1415.9981079101562 73.0015869140625V344.99945068359375Q1415.9981079101562 393.9986572265625 1394.6651916503906 416.83160400390625Q1373.332275390625 439.66455078125 1338.3330078125 439.66455078125Q1311.000244140625 439.66455078125 1279.0009460449219 424.83154296875Q1247.0016479492188 409.99853515625 1215.6689453125 380.3326416015625L1225.00244140625 401.33294677734375V73.0015869140625L1212.0022583007812 93.66864013671875L1285.0015258789062 71.66839599609375V0.0Z" fill="#34b06a"/></g></g>
</svg>